<svg id="Icons" xmlns="http://www.w3.org/2000/svg" viewBox="0 0 48 48"><defs><style>.cls-1{fill:#ffcebf}.cls-2{fill:#ffb59e}.cls-3,.cls-4{fill:none;stroke:#45413c;stroke-linecap:round;stroke-linejoin:round}.cls-4{fill:#656769}.cls-5{fill:#c0dceb}.cls-6{fill:#adc4d9}.cls-8{fill:#bf8df2}.cls-9{fill:#dabff5}.cls-10{fill:#a86c4d}.cls-11{fill:#de926a}</style></defs><path id="_Path_" data-name="&lt;Path&gt;" class="cls-1" d="M17.71 22.62l-1.16 1.31a1.66 1.66 0 01-2.41.1L13 22.94a1.54 1.54 0 00-2.17 0 1.54 1.54 0 000 2.19l1.2 1.13a4.7 4.7 0 006.77-.3l1.06-1.21z"/><path class="cls-2" d="M16.55 23.93a1.69 1.69 0 01-1.23.57l.61 3.05A4.66 4.66 0 0018.85 26l1.06-1.21-2.2-2.17z"/><path id="_Path_2" data-name="&lt;Path&gt;" class="cls-3" d="M17.71 22.62l-1.16 1.31a1.66 1.66 0 01-2.41.1L13 22.94a1.54 1.54 0 00-2.17 0 1.54 1.54 0 000 2.19l1.2 1.13a4.7 4.7 0 006.77-.3l1.06-1.21z"/><path id="_Rectangle_" data-name="&lt;Rectangle&gt;" class="cls-4" d="M35.07 37h3.56v2a1 1 0 01-1 1h-5.52a3 3 0 012.96-3z" transform="rotate(-78.92 35.366 38.527)"/><path id="_Path_3" data-name="&lt;Path&gt;" class="cls-5" d="M22.91 30.38a2.37 2.37 0 00-.38 3.32l1.36 1.71a10 10 0 006 3.61l3.73.7.92-4.72-3.27-.62A7 7 0 0127 31.79l-.75-1a2.37 2.37 0 00-3.35-.42z"/><path class="cls-6" d="M27 31.79l-.75-1a2.36 2.36 0 10-3.73 2.9l1.36 1.71a9.66 9.66 0 001.77 1.73 25.19 25.19 0 013.51-3.49A7 7 0 0127 31.79z"/><path id="_Path_4" data-name="&lt;Path&gt;" class="cls-3" d="M22.91 30.38a2.37 2.37 0 00-.38 3.32l1.36 1.71a10 10 0 006 3.61l3.73.7.92-4.72-3.27-.62A7 7 0 0127 31.79l-.75-1a2.37 2.37 0 00-3.35-.42z"/><path id="_Rectangle_2" data-name="&lt;Rectangle&gt;" class="cls-4" d="M15.27 41.2h3.56v2a1 1 0 01-1 1h-5.52a3 3 0 012.96-3z" transform="rotate(22.68 15.562 42.68)"/><path id="_Path_5" data-name="&lt;Path&gt;" class="cls-5" d="M23.34 29.75l-2.7 1.95a14 14 0 00-4.39 5.58l-1.5 3.45 4.4 1.84 1.36-3.26a9 9 0 012.87-3.71l2.84-2.05a2.39 2.39 0 00.47-3.34 2.39 2.39 0 00-3.35-.46z"/><path class="cls-6" d="M26.52 33.29a2.39 2.39 0 00-3.18-3.54l-2.7 1.95a14 14 0 00-2.14 2 48.81 48.81 0 008.02-.41z"/><path id="_Path_6" data-name="&lt;Path&gt;" class="cls-3" d="M23.34 29.75l-2.7 1.95a14 14 0 00-4.39 5.58l-1.5 3.45 4.4 1.84 1.36-3.26a9 9 0 012.87-3.71l2.84-2.05a2.39 2.39 0 00.47-3.34 2.39 2.39 0 00-3.35-.46z"/><ellipse id="_Ellipse_" data-name="&lt;Ellipse&gt;" cx="22.65" cy="46.31" rx="11.5" ry="1.5" fill="#45413c" opacity=".15"/><g id="_Group_" data-name="&lt;Group&gt;"><g id="_Group_2" data-name="&lt;Group&gt;"><path id="_Path_7" data-name="&lt;Path&gt;" class="cls-8" d="M21.81 20a2.16 2.16 0 00-2.72-.52 2.9 2.9 0 00-.29.19 5.45 5.45 0 00-2 4.23c-.07 2.41 1.88 2.15 1.88 2.15a15 15 0 001.78 4.32 1 1 0 001.34.43l4.81-2.45a1 1 0 00.35-1.49z"/><g id="_Group_3" data-name="&lt;Group&gt;"><path id="_Path_8" data-name="&lt;Path&gt;" class="cls-9" d="M17.77 25.88a5.43 5.43 0 012-4.23 1.81 1.81 0 01.29-.19 2.16 2.16 0 012.74.54l4.3 5.76a1 1 0 00-.16-.83L21.81 20a2.16 2.16 0 00-2.72-.52 2.9 2.9 0 00-.29.19 5.45 5.45 0 00-2 4.23c0 1.28.49 1.8 1 2z"/></g><path id="_Path_9" data-name="&lt;Path&gt;" class="cls-3" d="M21.81 20a2.16 2.16 0 00-2.72-.52 2.9 2.9 0 00-.29.19 5.45 5.45 0 00-2 4.23c-.07 2.41 1.88 2.15 1.88 2.15a15 15 0 001.78 4.32 1 1 0 001.34.43l4.81-2.45a1 1 0 00.35-1.49z"/></g></g><path id="_Rectangle_3" data-name="&lt;Rectangle&gt;" class="cls-8" d="M22.34 18.46a1.89 1.89 0 011.89 1.89v4h-3.78v-4a1.89 1.89 0 011.89-1.89z" transform="rotate(-56.4 22.343 21.405)"/><path class="cls-9" d="M19.89 19.78a1.88 1.88 0 00.53 2.61l1.81 1.21a1.89 1.89 0 012.09-3.15l-1.81-1.2a1.89 1.89 0 00-2.62.53z"/><path id="_Rectangle_4" data-name="&lt;Rectangle&gt;" class="cls-3" d="M22.34 18.46a1.89 1.89 0 011.89 1.89v4h-3.78v-4a1.89 1.89 0 011.89-1.89z" transform="rotate(-56.4 22.343 21.405)"/><path class="cls-1" d="M26.14 22.14l-.51-.37-1.75 2.63.89.65a2 2 0 01.8 1.88l-.28 2.15a1.53 1.53 0 003 .43l.25-1.61a6 6 0 00-2.4-5.76z"/><path class="cls-2" d="M26.14 22.14l-.51-.37-1.75 2.63.89.65a2 2 0 01.57.65l1.27-3.18a5.58 5.58 0 00-.47-.38z"/><path class="cls-3" d="M26.14 22.14l-.51-.37-1.75 2.63.89.65a2 2 0 01.8 1.88l-.28 2.15a1.53 1.53 0 003 .43l.25-1.61a6 6 0 00-2.4-5.76z"/><path id="_Path_10" data-name="&lt;Path&gt;" class="cls-10" d="M20.71 11.78s1.47-2.07 3.29-1.46c2.15.71 3.12 5 4.35 6.19A4.07 4.07 0 0031 17.78a3.67 3.67 0 01-2.88 1.15c-2.49-.05-4.3-3.58-5.1-4.8s-1.66-.74-1.66-.74z"/><g id="_Group_4" data-name="&lt;Group&gt;"><path id="_Path_11" data-name="&lt;Path&gt;" class="cls-11" d="M25 12.11a3.48 3.48 0 011.6 1.36c-.6-1.39-1.46-2.77-2.6-3.15-1.82-.61-3.29 1.46-3.29 1.46l.61 1.61a1 1 0 01.63-.06c.47-.54 1.67-1.69 3.05-1.22z"/></g><path id="_Path_12" data-name="&lt;Path&gt;" class="cls-3" d="M20.71 11.78s1.47-2.07 3.29-1.46c2.15.71 3.12 5 4.35 6.19A4.07 4.07 0 0031 17.78a3.67 3.67 0 01-2.88 1.15c-2.49-.05-4.3-3.58-5.1-4.8s-1.66-.74-1.66-.74z"/><circle id="_Path_13" data-name="&lt;Path&gt;" cx="16.33" cy="12.99" r="5.02" stroke="#45413c" stroke-linecap="round" stroke-linejoin="round" fill="#ffcebf"/><path id="_Path_14" data-name="&lt;Path&gt;" class="cls-10" d="M11.13 9.67c-.62 1.65 1.53 1.59 2.37 1.18a4.12 4.12 0 002.85 2 1.28 1.28 0 011.76.06 1.45 1.45 0 01-.27 2.3 2.43 2.43 0 01-.74.16 2.17 2.17 0 00.9 2.34 5 5 0 004.1-4.36 6 6 0 00-3-6.19c-2.19-1.16-6.72-.83-7.97 2.51z"/><g id="_Group_5" data-name="&lt;Group&gt;"><path id="_Path_15" data-name="&lt;Path&gt;" class="cls-11" d="M11.56 11c1.63-2.54 5.55-2.76 7.59-1.67a5.93 5.93 0 013 4.18v-.12a6 6 0 00-3-6.19c-2.24-1.2-6.78-.83-8 2.51-.29.68-.04 1.07.41 1.29z"/></g><path id="_Path_16" data-name="&lt;Path&gt;" class="cls-3" d="M11.13 9.67c-.62 1.65 1.53 1.59 2.37 1.18a4.12 4.12 0 002.85 2 1.28 1.28 0 011.76.06 1.45 1.45 0 01-.27 2.3 2.43 2.43 0 01-.74.16 2.17 2.17 0 00.9 2.34 5 5 0 004.1-4.36 6 6 0 00-3-6.19c-2.19-1.16-6.72-.83-7.97 2.51z"/></svg>