<svg xmlns="http://www.w3.org/2000/svg" viewBox="0 0 511.994 511.994"><circle cx="256.425" cy="251.384" r="243.525" fill="#4398d1"/><path d="M422.296 73.15a320.31 320.31 0 014.87 55.19c-.009 175.073-141.475 317.24-316.548 318.112 107.834 80.38 260.409 58.121 340.789-49.705 74.177-99.521 61.642-238.911-29.111-323.597z" fill="#3e8cc7"/><path d="M123.982 84.762l-17.089 17.089L187 137.637l24.566-26.173zm110.013 47.261l-26.702 25.369 35.299 81.175 18.106-16.013z" fill="#c4c4c4"/><path d="M303.421 247.112v68.357H337.6v102.537h42.724l34.179-34.179v-34.179l34.179-51.268h-34.179l-25.634-51.268zm-170.894 42.723v59.813h42.724v93.992l34.178-25.634v-25.634l42.724-34.179v-42.724h-51.268l-25.634-25.634zM243.608 33.493l34.179-8.545V8.851c-7.041-.615-14.159-.991-21.362-.991A242.918 242.918 0 00169.269 24l48.705 26.583 25.634-17.09zM371.779 136.03h-51.268v59.813h34.179l17.089-25.634h51.268l34.179 59.813h41.732a242.211 242.211 0 00-50.414-128.171h-42.587l-34.178 34.179zM47.08 212.933l25.634-25.634-25.634-42.724h-9.536a242.381 242.381 0 00-24.532 102.537H47.08v-34.179z" fill="#88b337"/><path d="M234.03 85.796l-75.869 75.869-34.179-8.545-17.089 17.089 42.724 25.634 25.634 42.724 17.089-17.089-8.545-34.179 77.108-76.108a61.884 61.884 0 0016.884-42.484v-1.034a61.873 61.873 0 00-43.757 18.123z" fill="#cfcfcf"/><path d="M158.067 474.154c-56.617 25.027-100.828 27.394-122.036 6.169-21.208-21.225-18.115-64.256 4.187-116.917a579.488 579.488 0 0193.71-144.919l-12.979-11.108a619.549 619.549 0 00-90.403 135.007C-.676 408.667-4.65 463.807 23.949 492.406a73.65 73.65 0 0054.139 19.465c26.608 0 59.258-8.827 96.436-26.42.402-.205 2.427-1.239 5.46-2.854a240.051 240.051 0 01-21.917-8.443z" fill="#fdb62f"/><path d="M32.075 321.451a234.753 234.753 0 01-10.467-65.794H47.08a8.548 8.548 0 008.545-8.545V216.47l23.131-23.131a8.547 8.547 0 001.282-10.442l-25.634-42.724a8.609 8.609 0 00-3.196-3.068A236.445 236.445 0 01166.417 34.346l47.739 23.925a8.527 8.527 0 008.545-.538L247.103 41.5l32.743-8.186a8.535 8.535 0 006.485-8.365V18.37A234.666 234.666 0 01430.13 93.307h-24.173a8.52 8.52 0 00-6.041 2.504l-31.675 31.675H320.51a8.548 8.548 0 00-8.545 8.545v59.813a8.548 8.548 0 008.545 8.545h34.179a8.556 8.556 0 007.109-3.802l14.552-21.832h41.741l31.718 55.541a8.539 8.539 0 007.417 4.272h33.82c.222 4.272.359 8.545.359 12.817.034 129.777-105.143 235.006-234.92 235.04-79.697.026-153.967-40.348-197.289-107.245l-14.33 9.305a251.988 251.988 0 00102.537 90.19c-51.465 20.704-91.429 21.516-111.329 1.649-38.793-38.802 3.29-151.361 97.897-261.836l-12.979-11.108C17.173 328.543-22.705 445.751 23.949 492.405a73.696 73.696 0 0054.174 19.473 228.062 228.062 0 0091.061-24.019c130.435 47.927 275.029-18.961 322.956-149.396S473.179 63.434 342.744 15.507 67.715 34.468 19.788 164.903a251.572 251.572 0 00-4.033 161.675l16.32-5.127zm430.107-99.974l-31.718-55.541a8.539 8.539 0 00-7.417-4.272h-51.268a8.556 8.556 0 00-7.109 3.802l-14.552 21.832h-21.063v-42.724h42.724a8.52 8.52 0 006.041-2.504l31.675-31.675h34.786a233.819 233.819 0 0145.159 111.081l-27.258.001zM269.242 16.763v1.512l-27.711 6.93a8.476 8.476 0 00-2.666 1.179l-21.507 14.338-28.65-14.33a233.966 233.966 0 0167.717-9.989c4.273.001 8.545.138 12.817.36zM61.956 185.974l-20.917 20.917a8.539 8.539 0 00-2.504 6.041v25.634H21.804a233.284 233.284 0 0120.9-84.67l19.252 32.078z"/><path d="M286.332 68.706v-1.034a8.548 8.548 0 00-8.545-8.545 69.954 69.954 0 00-49.799 20.627l-20.994 20.986-80.56-24.164a8.554 8.554 0 00-8.493 2.145L100.852 95.81c-3.341 3.332-3.341 8.741-.009 12.082a8.583 8.583 0 002.572 1.769l65.538 29.12-13.424 13.424-29.479-7.374a8.558 8.558 0 00-8.117 2.247l-17.089 17.089c-3.332 3.341-3.332 8.75 0 12.082a8.467 8.467 0 001.641 1.282l40.895 24.54 24.54 40.895a8.535 8.535 0 006.28 4.084 8.617 8.617 0 007.084-2.444l17.089-17.089a8.557 8.557 0 002.247-8.117l-7.366-29.445 13.372-13.193 28.112 65.222c1.871 4.332 6.896 6.332 11.228 4.46a8.728 8.728 0 002.281-1.444l18.115-16.013a8.563 8.563 0 002.563-8.827l-24.062-81.141 22.216-21.96a70.184 70.184 0 0019.253-48.353zM121.735 99.1l4.683-4.691 66.854 20.063-11.364 11.364L121.735 99.1zm129.222 120.669l-5.195 4.589-26.079-60.48 11.382-11.236 19.892 67.127zm-73.143-38.554a8.545 8.545 0 00-2.281 8.16l7.374 29.479-5.93 5.93-20.012-33.324a8.538 8.538 0 00-2.922-2.922l-33.324-20.012 5.93-5.93 29.479 7.374a8.558 8.558 0 008.117-2.247l75.869-75.869a52.97 52.97 0 0128.531-14.834 52.756 52.756 0 01-13.672 28.104l-77.159 76.091zM337.6 426.551h42.724a8.52 8.52 0 006.041-2.504l34.179-34.179a8.525 8.525 0 002.504-6.041v-31.616l32.743-49.115a8.54 8.54 0 00-2.41-11.843 8.505 8.505 0 00-4.7-1.418h-28.898l-23.225-46.543a8.537 8.537 0 00-7.69-4.725h-85.447a8.548 8.548 0 00-8.545 8.545v68.358a8.548 8.548 0 008.545 8.545h25.634v93.992a8.543 8.543 0 008.545 8.544zm-25.634-119.626v-51.268h71.622l23.267 46.543a8.544 8.544 0 007.648 4.725h18.209l-25.318 37.981a8.616 8.616 0 00-1.436 4.742v30.641l-29.172 29.172h-30.641v-93.992a8.548 8.548 0 00-8.545-8.545h-25.634zM171.431 451.331a8.541 8.541 0 008.946-.854l34.179-25.634a8.54 8.54 0 003.418-6.836v-21.533l39.519-31.615a8.547 8.547 0 003.204-6.665V315.47a8.548 8.548 0 00-8.545-8.545h-47.731l-23.131-23.131a8.525 8.525 0 00-6.041-2.504h-42.724a8.548 8.548 0 00-8.545 8.545v59.813a8.548 8.548 0 008.545 8.545h34.179v85.447a8.543 8.543 0 004.727 7.691zm-30.359-110.227V298.38h30.641l23.131 23.131a8.525 8.525 0 006.041 2.504h42.724v30.077l-39.519 31.616a8.546 8.546 0 00-3.204 6.665v21.362l-17.089 12.817v-76.903a8.548 8.548 0 00-8.545-8.545h-34.18z"/></svg>