<svg xmlns="http://www.w3.org/2000/svg" width="528" height="528" viewBox="0 0 48 48"><circle fill="#F44336" cx="24" cy="10" r="4"/><path fill="#795548" d="M41 26c0-4.419-7.611-8-17-8S7 21.581 7 26c0 1.061.501 1.551 1.385 1.688C8.814 29.534 15.454 31 24 31c8.484 0 15.063-1.445 15.575-3.271C40.497 27.685 41 27.217 41 26z"/><path fill="#FF80AB" d="M35 41H13L8 27l2 2 2-2 2 2 2-2 2 2 2-2 2 2 2-2 2 2 2-2 2 2 2-2 2 2 2-2 2 2 2-2z"/><path fill="#5D4037" d="M41 26a3.89 3.89 0 00-.177-1.093l-.865-.698L38 26.172l-.586-.586L36 24.172l-1.414 1.414-.586.586-.586-.586L32 24.172l-1.414 1.414-.586.586-.586-.586L28 24.172l-1.414 1.414-.586.586-.586-.586L24 24.172l-1.414 1.414-.586.586-.586-.586L20 24.172l-1.414 1.414-.586.586-.586-.586L16 24.172l-1.414 1.414-.586.586-.586-.586L12 24.172l-1.414 1.414-.586.586-2-1.88-.917.933A3.863 3.863 0 007 26c0 .977.44 1.454 1.198 1.634L8 27l2 2 2-2 2 2 2-2 2 2 2-2 2 2 2-2 2 2 2-2 2 2 2-2 2 2 2-2 2 2 2-2-.221.705C40.568 27.602 41 27.121 41 26z"/><path d="M20 27l-2 2 2.126 12h1.291zm-4 0l-2 2 3 12h1.501zm-4 0l-2 2 4 12h1.458zm15.988 0L26 29l-.614 12h1.197zm4 0L30 29l-1.833 12h1.291zM36 27l-2 2-2.917 12 1.417.042zm-12 0l-2 2 .751 12H24zm14 2l2-2-5 14h-1.208z" fill="#F8BBD0"/><path fill="#FFE0B2" d="M34.913 17.692c0 4.52-4.885 1.723-10.913 1.723s-10.913 2.797-10.913-1.723C13.087 13.171 17.972 11 24 11s10.913 2.171 10.913 6.692z"/></svg>